<svg xmlns="http://www.w3.org/2000/svg" width="256" height="256" viewBox="0 0 256 256">
  <rect width="256" height="256" rx="60" fill="#242938"/>
  <g transform="translate(55.000,55.603) scale(2.011019)">
<style type="text/css">
	.st0{fill:#FFFFFF;}
</style>
<path class="st0" d="M10.2,49.1v-0.1c0-7.6,5.4-13.8,13.3-13.8c1.2,0,2.3,0.2,3.4,0.4l6.2-7.6c-2.8-1.2-6-1.8-9.5-1.8
	C9.9,26.1,0,36.5,0,49.1v0.1c0,5.2,1.7,10.1,4.7,13.9l6.7-8.3C10.6,53.1,10.2,51.1,10.2,49.1z"/>
<path class="st0" d="M36.6,46.1c0.2,1,0.3,2,0.3,3v0.1c0,7.6-5.4,13.8-13.3,13.8c-2.3,0-4.3-0.5-6.1-1.5l-7.8,6.3
	c3.8,2.6,8.5,4.2,13.8,4.2c13.7,0,23.6-10.3,23.6-22.9v-0.1c0-3.5-0.8-6.7-2.1-9.6L36.6,46.1z"/>
<circle class="st0" cx="52.4" cy="20.2" r="6.9"/>
<circle class="st0" cx="68.7" cy="3.9" r="3.9"/>
  </g>
</svg>
